<?xml version="1.0" encoding="UTF-8" standalone="no"?>
<!-- Created with Inkscape (http://www.inkscape.org/) -->
<svg
   xmlns:dc="http://purl.org/dc/elements/1.1/"
   xmlns:cc="http://creativecommons.org/ns#"
   xmlns:rdf="http://www.w3.org/1999/02/22-rdf-syntax-ns#"
   xmlns:svg="http://www.w3.org/2000/svg"
   xmlns="http://www.w3.org/2000/svg"
   xmlns:sodipodi="http://sodipodi.sourceforge.net/DTD/sodipodi-0.dtd"
   xmlns:inkscape="http://www.inkscape.org/namespaces/inkscape"
   width="290"
   height="400"
   id="svg2"
   sodipodi:version="0.32"
   inkscape:version="0.46"
   sodipodi:docname="digital_1.svg"
   inkscape:output_extension="org.inkscape.output.svg.inkscape"
   version="1.0"
   inkscape:export-filename="/Users/thomasmoenicke/workspace/clocks/Clocks/images/digital_1.png"
   inkscape:export-xdpi="90"
   inkscape:export-ydpi="90">
  <defs
     id="defs4">
    <inkscape:perspective
       sodipodi:type="inkscape:persp3d"
       inkscape:vp_x="0 : 526.18109 : 1"
       inkscape:vp_y="0 : 1000 : 0"
       inkscape:vp_z="744.09448 : 526.18109 : 1"
       inkscape:persp3d-origin="372.04724 : 350.78739 : 1"
       id="perspective10" />
    <filter
       inkscape:collect="always"
       id="filter3207">
      <feGaussianBlur
         inkscape:collect="always"
         stdDeviation="2.8421366"
         id="feGaussianBlur3209" />
    </filter>
    <filter
       inkscape:collect="always"
       id="filter3233"
       x="-0.30237699"
       width="1.604754"
       y="-0.19895732"
       height="1.3979146">
      <feGaussianBlur
         inkscape:collect="always"
         stdDeviation="28.421366"
         id="feGaussianBlur3235" />
    </filter>
    <filter
       inkscape:collect="always"
       id="filter3246"
       x="-0.40039926"
       width="1.8007985"
       y="-0.070575816"
       height="1.1411516">
      <feGaussianBlur
         inkscape:collect="always"
         stdDeviation="9.3338353"
         id="feGaussianBlur3248" />
    </filter>
  </defs>
  <sodipodi:namedview
     id="base"
     pagecolor="#000000"
     bordercolor="#666666"
     borderopacity="1.0"
     gridtolerance="10000"
     guidetolerance="10"
     objecttolerance="10"
     inkscape:pageopacity="0"
     inkscape:pageshadow="2"
     inkscape:zoom="0.98994949"
     inkscape:cx="-121.88316"
     inkscape:cy="251.86353"
     inkscape:document-units="px"
     inkscape:current-layer="layer1"
     showgrid="false"
     inkscape:window-width="1440"
     inkscape:window-height="852"
     inkscape:window-x="127"
     inkscape:window-y="1072" />
  <metadata
     id="metadata7">
    <rdf:RDF>
      <cc:Work
         rdf:about="">
        <dc:format>image/svg+xml</dc:format>
        <dc:type
           rdf:resource="http://purl.org/dc/dcmitype/StillImage" />
      </cc:Work>
    </rdf:RDF>
  </metadata>
  <g
     inkscape:label="Layer 1"
     inkscape:groupmode="layer"
     id="layer1">
    <path
       style="opacity:0.80000000000000004;fill:#ffffff;fill-opacity:1;fill-rule:evenodd;stroke:none;stroke-width:2;stroke-linecap:butt;stroke-linejoin:miter;stroke-miterlimit:4;stroke-dasharray:none;stroke-dashoffset:0;stroke-opacity:1;filter:url(#filter3246)"
       d="M 254.41685,36.180707 L 213.66704,69.586957 C 213.80042,70.431827 213.84674,71.310217 213.79361,72.211957 L 208.63189,159.8057 L 235.89402,184.52445 L 246.27175,175.9932 L 254.41853,37.743207 C 254.44945,37.218427 254.43738,36.691827 254.41685,36.180707 z M 234.86284,201.4932 L 204.68746,226.21195 C 204.68381,226.33889 204.70415,226.45904 204.69662,226.58695 L 199.41336,316.2432 C 199.33044,317.65039 198.99482,318.98687 198.49015,320.2432 L 235.30653,353.58695 C 235.70468,352.33782 235.95692,351.03484 236.03671,349.6807 L 244.26636,210.02445 L 234.86284,201.4932 z"
       id="whiteShadow"
       sodipodi:nodetypes="ccccccccccccccccc"
       transform="matrix(0.9793752,0,0,0.9793752,6.2758725,10.29862)" />
    <path
       style="opacity:1;fill:#ffffff;fill-opacity:1;fill-rule:evenodd;stroke:none;stroke-width:2;stroke-linecap:butt;stroke-linejoin:miter;stroke-miterlimit:4;stroke-dasharray:none;stroke-dashoffset:0;stroke-opacity:1"
       d="M 255.44544,45.733101 L 215.53608,78.450355 C 215.66672,79.2778 215.71208,80.138074 215.66004,81.021215 L 210.60479,166.80836 L 237.30465,191.01729 L 247.46834,182.662 L 255.44709,47.263375 C 255.47736,46.749418 255.46554,46.233679 255.44544,45.733101 z M 236.29472,207.63607 L 206.7417,231.845 C 206.73814,231.96932 206.75806,232.08699 206.75068,232.21227 L 201.57639,320.01938 C 201.49517,321.39754 201.16648,322.70646 200.67222,323.93688 L 236.72926,356.59292 C 237.11921,355.36955 237.36624,354.09345 237.44438,352.76724 L 245.5043,215.99136 L 236.29472,207.63607 z"
       id="number"
       sodipodi:nodetypes="ccccccccccccccccc" />
    <path
       style="opacity:1;fill:#ffffff;fill-opacity:1;fill-rule:evenodd;stroke:none;stroke-width:2;stroke-linecap:butt;stroke-linejoin:miter;stroke-miterlimit:4;stroke-dasharray:none;stroke-dashoffset:0;stroke-opacity:1;filter:url(#filter3207)"
       d="M 254.41686,36.180707 L 213.66705,69.586947 C 213.80042,70.431817 213.84674,71.310207 213.79361,72.211947 L 208.6319,159.80569 L 235.89402,184.52444 L 246.27176,175.99319 L 254.41853,37.743207 C 254.44945,37.218427 254.43739,36.691827 254.41686,36.180707 z M 234.86284,201.49319 L 204.68747,226.21194 C 204.68382,226.33888 204.70416,226.45903 204.69662,226.58694 L 199.41336,316.2432 C 199.33044,317.65039 198.99482,318.98687 198.49016,320.2432 L 235.30653,353.58695 C 235.70468,352.33782 235.95693,351.03484 236.03672,349.6807 L 244.26637,210.02444 L 234.86284,201.49319 z"
       id="path3205"
       sodipodi:nodetypes="ccccccccccccccccc"
       transform="matrix(0.9793752,0,0,0.9793752,6.2758711,10.29862)" />
  </g>
</svg>
