<?xml version="1.0" encoding="UTF-8" standalone="no"?>
<!-- Created with Inkscape (http://www.inkscape.org/) -->
<svg
   xmlns:dc="http://purl.org/dc/elements/1.1/"
   xmlns:cc="http://creativecommons.org/ns#"
   xmlns:rdf="http://www.w3.org/1999/02/22-rdf-syntax-ns#"
   xmlns:svg="http://www.w3.org/2000/svg"
   xmlns="http://www.w3.org/2000/svg"
   xmlns:sodipodi="http://sodipodi.sourceforge.net/DTD/sodipodi-0.dtd"
   xmlns:inkscape="http://www.inkscape.org/namespaces/inkscape"
   width="290"
   height="400"
   id="svg2"
   sodipodi:version="0.32"
   inkscape:version="0.46"
   sodipodi:docname="digital_5.svg"
   inkscape:output_extension="org.inkscape.output.svg.inkscape"
   version="1.0"
   inkscape:export-filename="/Users/thomasmoenicke/workspace/clocks/Clocks/images/digital_5.png"
   inkscape:export-xdpi="90"
   inkscape:export-ydpi="90">
  <defs
     id="defs4">
    <inkscape:perspective
       sodipodi:type="inkscape:persp3d"
       inkscape:vp_x="0 : 526.18109 : 1"
       inkscape:vp_y="0 : 1000 : 0"
       inkscape:vp_z="744.09448 : 526.18109 : 1"
       inkscape:persp3d-origin="372.04724 : 350.78739 : 1"
       id="perspective10" />
    <filter
       inkscape:collect="always"
       id="filter3201">
      <feGaussianBlur
         inkscape:collect="always"
         stdDeviation="8.5264097"
         id="feGaussianBlur3203" />
    </filter>
    <filter
       inkscape:collect="always"
       id="filter3207">
      <feGaussianBlur
         inkscape:collect="always"
         stdDeviation="2.8421366"
         id="feGaussianBlur3209" />
    </filter>
    <filter
       inkscape:collect="always"
       id="filter3233"
       x="-0.30237699"
       width="1.604754"
       y="-0.19895732"
       height="1.3979146">
      <feGaussianBlur
         inkscape:collect="always"
         stdDeviation="28.421366"
         id="feGaussianBlur3235" />
    </filter>
  </defs>
  <sodipodi:namedview
     id="base"
     pagecolor="#000000"
     bordercolor="#666666"
     borderopacity="1.0"
     gridtolerance="10000"
     guidetolerance="10"
     objecttolerance="10"
     inkscape:pageopacity="0"
     inkscape:pageshadow="2"
     inkscape:zoom="0.98994949"
     inkscape:cx="148.7508"
     inkscape:cy="251.86353"
     inkscape:document-units="px"
     inkscape:current-layer="layer1"
     showgrid="false"
     inkscape:window-width="1440"
     inkscape:window-height="852"
     inkscape:window-x="127"
     inkscape:window-y="1072" />
  <metadata
     id="metadata7">
    <rdf:RDF>
      <cc:Work
         rdf:about="">
        <dc:format>image/svg+xml</dc:format>
        <dc:type
           rdf:resource="http://purl.org/dc/dcmitype/StillImage" />
      </cc:Work>
    </rdf:RDF>
  </metadata>
  <g
     inkscape:label="Layer 1"
     inkscape:groupmode="layer"
     id="layer1">
    <path
       style="opacity:0.8;fill:#ffffff;fill-opacity:1;fill-rule:evenodd;stroke:none;stroke-width:2;stroke-linecap:butt;stroke-linejoin:miter;stroke-miterlimit:4;stroke-dasharray:none;stroke-dashoffset:0;stroke-opacity:1;filter:url(#filter3201)"
       d="M 63.642576,22.274457 C 61.688126,22.274457 59.808556,22.648777 58.050556,23.305707 L 98.513632,59.993207 L 202.29488,59.993207 C 203.29864,59.993207 204.26039,60.142607 205.17903,60.368207 L 248.4217,24.961957 C 246.03935,23.266637 243.10415,22.274457 239.86132,22.274457 L 63.642576,22.274457 z M 48.476056,32.524457 C 47.796236,34.156977 47.370526,35.906257 47.262286,37.743207 L 39.130236,175.7432 L 51.084986,186.58695 L 78.469676,164.14945 C 78.434606,163.63666 78.436706,163.11809 78.468006,162.58695 L 83.793616,72.211957 C 83.921666,70.038837 84.615146,68.006667 85.707832,66.243207 L 48.476056,32.524457 z M 202.85484,172.46195 C 200.75353,173.92629 198.22469,174.8057 195.52922,174.8057 L 89.997972,174.8057 C 88.598152,174.8057 87.265232,174.54669 86.038492,174.1182 L 60.459096,195.08695 L 82.767656,215.3057 C 84.303626,214.66168 85.994552,214.3057 87.732822,214.3057 L 193.13907,214.3057 C 194.96077,214.3057 196.65896,214.69576 198.16837,215.39945 L 225.51813,193.02445 L 202.85484,172.46195 z M 234.86284,201.4932 L 204.68746,226.21195 C 204.68381,226.33889 204.70415,226.45904 204.69662,226.58695 L 199.41336,316.2432 C 199.33044,317.65039 198.99482,318.98687 198.49015,320.2432 L 235.30653,353.58695 C 235.70468,352.33782 235.95692,351.03484 236.03671,349.6807 L 244.26636,210.02445 L 234.86284,201.4932 z M 187.82018,328.4307 C 187.35123,328.48373 186.88904,328.52445 186.40841,328.52445 L 81.002166,328.52445 C 80.618956,328.52445 80.253026,328.49585 79.880846,328.46195 L 36.932316,363.64945 C 38.877386,364.5874 41.076276,365.11819 43.439516,365.1182 L 219.65826,365.1182 C 222.10742,365.1182 224.44865,364.55884 226.56284,363.5557 L 187.82018,328.4307 z"
       id="whiteShadow"
       sodipodi:nodetypes="cccccccccccccccccccccccccccccccccccccccccccccc"
       transform="matrix(0.9793752,0,0,0.9793752,6.2758725,10.29862)" />
    <path
       style="opacity:1;fill:#ffffff;fill-opacity:1;fill-rule:evenodd;stroke:none;stroke-width:2;stroke-linecap:butt;stroke-linejoin:miter;stroke-miterlimit:4;stroke-dasharray:none;stroke-dashoffset:0;stroke-opacity:1"
       d="M 68.60583,32.113664 C 66.69169,32.113664 64.850886,32.480264 63.129144,33.123645 L 102.75768,69.054474 L 204.39848,69.054474 C 205.38153,69.054474 206.32344,69.200793 207.22314,69.42174 L 249.57394,34.745735 C 247.24073,33.085381 244.36607,32.113664 241.19011,32.113664 L 68.60583,32.113664 z M 53.752116,42.15226 C 53.086327,43.75111 52.669387,45.464311 52.56338,47.263375 L 44.599061,182.41715 L 56.307247,193.03726 L 83.127135,171.06252 C 83.092778,170.56031 83.094835,170.05243 83.125499,169.53225 L 88.34127,81.021215 C 88.466669,78.892915 89.145856,76.902658 90.216005,75.175569 L 53.752116,42.15226 z M 204.94688,179.20358 C 202.88892,180.63772 200.41224,181.49899 197.77236,181.49899 L 94.417662,181.49899 C 93.046713,181.49899 91.741284,181.24533 90.539836,180.82567 L 65.488018,201.36194 L 87.33647,221.16369 C 88.840751,220.53295 90.496812,220.18431 92.199231,220.18431 L 195.43151,220.18431 C 197.21561,220.18431 198.87879,220.56633 200.35707,221.2555 L 227.14276,199.34198 L 204.94688,179.20358 z M 236.29472,207.63607 L 206.7417,231.845 C 206.73814,231.96932 206.75806,232.08699 206.75068,232.21227 L 201.57639,320.01938 C 201.49517,321.39754 201.16648,322.70646 200.67222,323.93688 L 236.72926,356.59292 C 237.11921,355.36955 237.36624,354.09345 237.44438,352.76724 L 245.5043,215.99136 L 236.29472,207.63607 z M 74.748658,324.15112 C 74.353118,322.86133 74.171727,321.47666 74.257599,320.01938 L 74.748658,324.15112 z M 190.22232,331.95551 C 189.76303,332.00745 189.31038,332.04733 188.83966,332.04733 L 85.607383,332.04733 C 85.232077,332.04733 84.873694,332.01932 84.50919,331.98612 L 42.446463,366.44788 C 44.351416,367.36649 46.504964,367.88633 48.819453,367.88634 L 221.40373,367.88634 C 223.80239,367.88634 226.09533,367.33852 228.16591,366.35607 L 190.22232,331.95551 z"
       id="number"
       sodipodi:nodetypes="ccccccccccccccccccccccccccccccccccccccccccccccccc" />
    <path
       style="opacity:1;fill:#ffffff;fill-opacity:1;fill-rule:evenodd;stroke:none;stroke-width:2;stroke-linecap:butt;stroke-linejoin:miter;stroke-miterlimit:4;stroke-dasharray:none;stroke-dashoffset:0;stroke-opacity:1;filter:url(#filter3207)"
       d="M 63.642566,22.274457 C 61.688126,22.274457 59.808546,22.648777 58.050546,23.305707 L 98.513622,59.993207 L 202.29488,59.993207 C 203.29864,59.993207 204.26039,60.142607 205.17904,60.368207 L 248.4217,24.961957 C 246.03936,23.266637 243.10416,22.274457 239.86133,22.274457 L 63.642566,22.274457 z M 48.476056,32.524457 C 47.796226,34.156977 47.370526,35.906257 47.262276,37.743207 L 39.130226,175.74319 L 51.084986,186.58694 L 78.469676,164.14944 C 78.434606,163.63665 78.436706,163.11808 78.468006,162.58694 L 83.793606,72.211947 C 83.921656,70.038827 84.615146,68.006657 85.707822,66.243197 L 48.476056,32.524457 z M 202.85484,172.46194 C 200.75353,173.92628 198.22469,174.80569 195.52922,174.80569 L 89.997972,174.80569 C 88.598142,174.80569 87.265222,174.54669 86.038482,174.11819 L 60.459096,195.08694 L 82.767646,215.30569 C 84.303616,214.66167 85.994552,214.30569 87.732812,214.30569 L 193.13908,214.30569 C 194.96078,214.30569 196.65897,214.69575 198.16838,215.39944 L 225.51814,193.02444 L 202.85484,172.46194 z M 234.86284,201.49319 L 204.68747,226.21194 C 204.68382,226.33888 204.70416,226.45903 204.69662,226.58694 L 199.41336,316.2432 C 199.33044,317.65039 198.99482,318.98687 198.49016,320.2432 L 235.30653,353.58695 C 235.70468,352.33782 235.95693,351.03484 236.03672,349.6807 L 244.26637,210.02444 L 234.86284,201.49319 z M 187.82018,328.4307 C 187.35124,328.48373 186.88905,328.52445 186.40841,328.52445 L 81.002166,328.52445 C 80.618946,328.52445 80.253016,328.49585 79.880846,328.46195 L 36.932316,363.64945 C 38.877386,364.5874 41.076276,365.11819 43.439506,365.1182 L 219.65826,365.1182 C 222.10742,365.1182 224.44866,364.55884 226.56284,363.5557 L 187.82018,328.4307 z"
       id="path3205"
       sodipodi:nodetypes="cccccccccccccccccccccccccccccccccccccccccccccc"
       transform="matrix(0.9793752,0,0,0.9793752,6.2758711,10.29862)" />
  </g>
</svg>
